<?xml version="1.0"?>
<svg xmlns="http://www.w3.org/2000/svg" id="Layer_1" data-name="Layer 1" viewBox="0 0 128 128" width="512" height="512"><title>ROTATION</title><path d="M91.107,72.963,86.814,59.139a1.249,1.249,0,0,0-1.158-.879l-6.431-.18a1.255,1.255,0,0,0-1.006-.666l-6.587-.538a1.251,1.251,0,0,0-1.149-.838l-6.4-.161-3.2-10.316a4.706,4.706,0,1,0-8.989,2.792l6.841,22.031-3.76-3.428a4.837,4.837,0,1,0-6.357,7.291l5.481,4.923.006,0,0,.006a18,18,0,0,1,3.035,4.1c1.46,2.388,2.838,4.644,5.066,4.767,2.846.157,3.532,2,4.595,5.531l.825,2.676,0,.015a1.255,1.255,0,0,0,1.194.878,1.234,1.234,0,0,0,.372-.057c.8-.25.966-.64.776-1.557l.042-.013a1.263,1.263,0,0,0-.1-.228c-.1-.411-.258-.913-.451-1.535l-.273-.9c-.994-3.3-2.121-7.045-6.851-7.306-.917-.051-2.061-1.923-3.07-3.575a20.173,20.173,0,0,0-3.506-4.657l0,0-.01-.009h0l-5.491-4.931a2.337,2.337,0,0,1,3.043-3.548l7.142,6.512a1.222,1.222,0,0,0,2.035-1.294L54.276,47.613a2.207,2.207,0,1,1,4.216-1.31L64.919,67a1.25,1.25,0,1,0,2.387-.741L64.865,58.4l4.659.117,2.986,9.612a1.25,1.25,0,0,0,1.193.88,1.263,1.263,0,0,0,.371-.057,1.25,1.25,0,0,0,.822-1.564l-2.465-7.936,4.744.387,2.762,8.9a1.25,1.25,0,0,0,1.193.88,1.265,1.265,0,0,0,.371-.057,1.249,1.249,0,0,0,.822-1.564L80.03,60.6l4.663.13L88.721,73.7a4.9,4.9,0,0,1-.832,4.481,9.584,9.584,0,0,0-1.474,8.8l.976,3.143a1.25,1.25,0,0,0,1.193.88,1.267,1.267,0,0,0,.371-.057,1.249,1.249,0,0,0,.822-1.564L88.8,86.241a7.091,7.091,0,0,1,1.05-6.507A7.39,7.39,0,0,0,91.107,72.963Z"/><path d="M52.273,63.008a1.25,1.25,0,0,0,.323-2.457,13.784,13.784,0,0,1-9.552-9.065,1.25,1.25,0,0,0-2.377.776,16.273,16.273,0,0,0,11.28,10.7A1.247,1.247,0,0,0,52.273,63.008Z"/><path d="M41.662,47.775l4.175-2.431a1.25,1.25,0,0,0-1.258-2.16l-1.9,1.109a13.835,13.835,0,0,1,26.6-1.636,1.25,1.25,0,1,0,2.361-.819,16.338,16.338,0,0,0-31.444,2.1l-1.464-1.586a1.25,1.25,0,0,0-1.836,1.7l3.226,3.493a1.249,1.249,0,0,0,1.547.232Z"/><path d="M66.746,48.875A1.25,1.25,0,0,0,68,51.038l1.731-1a13.681,13.681,0,0,1-.649,2.206,1.25,1.25,0,1,0,2.326.914,16.214,16.214,0,0,0,.851-3.006l1.592,1.731a1.25,1.25,0,1,0,1.84-1.692l-3.219-3.5a1.249,1.249,0,0,0-1.547-.235Z"/></svg>
