<?xml version="1.0"?>
<svg xmlns="http://www.w3.org/2000/svg" id="Layer_1" data-name="Layer 1" viewBox="0 0 128 128" width="512" height="512">
    <title>SWIPE</title>
    <path d="M92.987,66.535,87.4,62.65a1.253,1.253,0,0,0-.473-1.145L81.4,57.211a1.249,1.249,0,0,0-.492-1.372l-5.58-3.854,3.135-10.972a4.887,4.887,0,0,0-9.4-2.685L62.333,61.89l-1.394-5.412A5.023,5.023,0,1,0,51.269,59.2l1.989,7.491,0,.007v.007a19.037,19.037,0,0,1,.315,5.373c-.091,2.926-.177,5.69,1.687,7.062,2.449,1.8,1.987,3.841.883,7.585l-.773,2.852c-.174.941.009,1.308.811,1.539a1.25,1.25,0,0,0,1.548-.856l0-.018.808-2.81c1.02-3.459,2.177-7.379-1.8-10.306-.807-.594-.734-2.919-.671-4.97a21.168,21.168,0,0,0-.4-6.1V66.05l-2-7.518a2.524,2.524,0,0,1,3.651-2.908,2.492,2.492,0,0,1,1.2,1.5l2.535,9.846A1.233,1.233,0,0,0,63.473,67l8-27.99a2.387,2.387,0,1,1,4.59,1.312L69.8,62.247a1.25,1.25,0,1,0,2.4.687l2.4-8.411,4.146,2.864L75.828,67.613a1.25,1.25,0,1,0,2.4.687l2.428-8.5,4.062,3.158-2.7,9.467a1.25,1.25,0,1,0,2.4.686L86.684,65.2l4.142,2.879L86.888,81.86a5.215,5.215,0,0,1-3.355,3.51,10.022,10.022,0,0,0-6.323,6.851l-.95,3.329a1.25,1.25,0,1,0,2.4.686l.95-3.329a7.522,7.522,0,0,1,4.716-5.167,7.716,7.716,0,0,0,4.963-5.193L93.476,67.9A1.251,1.251,0,0,0,92.987,66.535Z"/>
    <path d="M38.744,38.473h21.2l-3.054,3.054a1.25,1.25,0,1,0,1.768,1.768l5.187-5.188a1.249,1.249,0,0,0,0-1.768l-5.187-5.188a1.25,1.25,0,1,0-1.768,1.768l3.054,3.055h-21.2L41.8,32.919a1.25,1.25,0,1,0-1.768-1.768l-5.187,5.188a1.249,1.249,0,0,0,0,1.768l5.187,5.188A1.25,1.25,0,0,0,41.8,41.527Z"/>
</svg>
